<svg xmlns="http://www.w3.org/2000/svg" viewBox="0 0 100 100" width="100" height="100">
  <!-- Strawberry body -->
  <path d="M30,40 C30,80 70,80 70,40 C60,30 40,30 30,40z" fill="#E91E63" />
  <!-- Seeds -->
  <circle cx="35" cy="45" r="2" fill="#FFF9C4" />
  <circle cx="50" cy="48" r="2" fill="#FFF9C4" />
  <circle cx="65" cy="45" r="2" fill="#FFF9C4" />
  <circle cx="40" cy="55" r="2" fill="#FFF9C4" />
  <circle cx="55" cy="58" r="2" fill="#FFF9C4" />
  <circle cx="35" cy="65" r="2" fill="#FFF9C4" />
  <circle cx="50" cy="68" r="2" fill="#FFF9C4" />
  <circle cx="65" cy="65" r="2" fill="#FFF9C4" />
  <!-- Leaf -->
  <path d="M40,30 C30,20 30,10 50,20 C70,10 70,20 60,30 C70,35 30,35 40,30z" fill="#4CAF50" />
  <!-- Stem -->
  <rect x="48" y="20" width="4" height="10" fill="#7CB342" />
</svg>